<svg xmlns="http://www.w3.org/2000/svg" version="1.0" viewBox="0 0 256 256"><g fill="#D69834"><path d="M36.9 171.3v-3.4c19.6-5.9 32.3-16 37.4-30.7h5.5c-3.1 14.1 3.8 23.5 20.5 28.1v2.6l-63.4 3.4zM104.3 139.5c0-.7.5-1.2 1.2-1.2l6.2.2c2.5-.8 2.8-3 1.6-6.2l-4.5-12.7-25.7-1.9 1.5-2.5 23.3 1.9c-5.5-12.6-10.7-23.7-14.7-29.9l5.4-14.8 26.5 60.7c1.5 2.9 3.5 5 6 5.8l3.1.2c.4 0 .8.4.8.8 0 .5-.4.8-.8.8l-28.8-.4c-.6.3-1.1-.2-1.1-.8z"/><path d="M128.7 165.8v-2.5c0-.3.2-.5.5-.5l13.3-.8c3.2-1.2 4.5-4.4 3.8-9.8-11-34.8-24.3-67.1-40.4-96.7l10.5-28.8 50.1 121.7c2.3 5.4 5.7 9.5 11 11.3.9.3 1.8.4 2.7.4l2.4-.1c.2 0 .3.1.3.3v2.6c0 .1-.1.3-.3.3l-53.4 2.9c-.3.3-.5 0-.5-.3z"/><path d="M169 132.9c4.4-2.3 6.7-7 5.2-16.4-.1-.9-.3-1.8-.6-2.6-1.3-4.2-3.5-7.7-6-9.6l-7.1-1-.9-2 7.9 1c3.1-3.8 4.2-9 3-16.1-.4-2.4-2-5.8-3.3-8.3-1.1-2-3-3.5-5.2-4l-21.8-5.6-.6-2.1 24.3 6.1c3.4.9 6.6 2.5 9.2 4.8 3.3 2.9 5.9 6.6 7 11.9 1.2 7.2-.5 12.5-6.5 15 4.1 2.1 7.2 5.5 8.9 10.6.9 2.6 1.2 5.4.7 8.2-1.1 6.6-5.9 10.3-13.4 11.9l-.8-1.8z"/><path d="M186.2 162.7v-2.3c0-.1.1-.2.2-.3 5.1-1.9 8.7-5.3 9.3-11.7 1.3-15.2-2-27-8.1-36.8-1.6-2.3-3.6-3.8-5.9-4.9v-3.2c5.4-2 7.7-8.4 7-19.3-.5-11.5-3.5-20.6-7.9-27.3-1.9-2.8-4.7-4.9-7.9-6l-46.8-15.4-1.9-4.3 53.5 18.5c5.3 1.8 10.2 4.8 14.2 8.9 6.4 6.4 10.7 14.6 12.5 25.2 1.7 9.6-1.6 17.4-11 22.9 8.7 6.5 13.2 10.8 15.7 20.2 1.2 4.5 1.5 9.3.7 14-2.1 12.6-10.7 19.1-23.2 22-.2.2-.4 0-.4-.2zM34.1 181.3l147.5-10 48.2 3.8-148.2 12.7zM81.5 189.2l-53.8-6.9-16.1 36.1L82.3 230zM163.4 193.6h-.7l-1.8 11.6 4.1-.3-1.6-11.3zm0 0h-.7l-1.8 11.6 4.1-.3-1.6-11.3zm67.9-16.7L83.7 189.4l.8 40.7 159.6-23-12.8-30.2zm-98.8 30.3l-8.8 1.1.3 12-12.6 1.7v-29.5l19.8-1.5c3.6-.3 6.8 2.6 6.8 6.2l.1 3.6c0 3.2-2.4 6-5.6 6.4zm33.4 7.2l-.4-5.1-4.5.7-.5 5.3-11.6 1.6 5.7-28.6 15.8-1.2 6.1 25.7-10.6 1.6zm33.6-4.8l-9.5 1 .2-9.3-7-15.9 9.2-1 2.2 9.6 2.8-10 8.7-.8-6.9 16.8.3 9.6zm-36.8-16l-1.8 11.6 4.1-.3-1.6-11.3h-.7z"/><path d="M128.1 200.9c0 1.4-1.1 2.6-2.5 2.6h-1.7V196l1.5-.1c1.4-.1 2.6 1 2.7 2.4v2.6z"/></g></svg>